<?xml version="1.0" encoding="utf-8"?><svg xmlns="http://www.w3.org/2000/svg" xmlns:xlink="http://www.w3.org/1999/xlink"><symbol viewBox="0 0 486.025 486.025" id="dollar-symbol" xmlns="http://www.w3.org/2000/svg"><path d="M420.725 85.413c-42.1-42.1-98.1-65.3-157.6-65.3-60.6 0-117.3 23.9-159.6 67.3-4.6 4.7-4.5 12.3.2 17 4.7 4.6 12.3 4.5 17-.2 37.8-38.7 88.3-60 142.4-60 109.7-.1 198.9 89.1 198.9 198.8s-89.2 198.9-198.9 198.9-198.8-89.2-198.8-198.9v-2.5l19.7 19.8c2.3 2.3 5.4 3.5 8.5 3.5s6.1-1.2 8.5-3.5c4.7-4.7 4.7-12.3 0-17l-40.2-40.3c-4.7-4.7-12.3-4.7-17 0l-40.3 40.3c-4.7 4.7-4.7 12.3 0 17s12.3 4.7 17 0l19.8-19.8v2.5c0 59.5 23.2 115.5 65.3 157.6s98.1 65.3 157.6 65.3 115.5-23.2 157.6-65.3c42-42.1 65.2-98.1 65.2-157.6s-23.2-115.5-65.3-157.6z"/><path d="M263.125 103.613c-6.6 0-12 5.4-12 12v29.1h-7.6c-30.3 0-55 24.7-55 55s24.7 55 55 55h39.2c17.1 0 31 13.9 31 31s-13.9 31-31 31h-70.5c-6.6 0-12 5.4-12 12s5.4 12 12 12h38.9v29.5c0 6.6 5.4 12 12 12s12-5.4 12-12v-29.5h8.3c30-.4 54.3-24.9 54.3-55 0-30.3-24.7-55-55-55h-39.2c-17.1 0-31-13.9-31-31s13.9-31 31-31h69.2c6.6 0 12-5.4 12-12s-5.4-12-12-12h-37.6v-29.1c0-6.6-5.3-12-12-12z"/></symbol><symbol viewBox="0 0 512 512" id="envelope" xmlns="http://www.w3.org/2000/svg"><path d="M469.333 64H42.667C19.135 64 0 83.135 0 106.667v298.667C0 428.865 19.135 448 42.667 448h426.667C492.865 448 512 428.865 512 405.333V106.667C512 83.135 492.865 64 469.333 64zM42.667 85.333h426.667c1.168 0 2.177.486 3.294.667L267.333 252.677c-6.938 4.385-16.854 3.677-21.906.563L39.365 86.003c1.119-.183 2.131-.67 3.302-.67zm448 320c0 11.76-9.573 21.333-21.333 21.333H42.667c-11.76 0-21.333-9.573-21.333-21.333V106.667c0-2.385.637-4.585 1.362-6.728l210.221 170.54c6.927 4.479 14.917 6.854 23.083 6.854 7.875 0 15.563-2.198 22.313-6.375a9.843 9.843 0 0 0 1.76-1.156l209.23-169.868c.727 2.145 1.363 4.346 1.363 6.733v298.666z"/></symbol><symbol viewBox="0 0 97.75 97.75" id="facebook" xmlns="http://www.w3.org/2000/svg"><path d="M48.875 0C21.882 0 0 21.882 0 48.875S21.882 97.75 48.875 97.75 97.75 75.868 97.75 48.875 75.868 0 48.875 0zm18.646 24.89l-6.76.003c-5.301 0-6.326 2.519-6.326 6.215v8.15h12.641l-.006 12.765H54.436v32.758H41.251V52.023H30.229V39.258h11.022v-9.414c0-10.925 6.675-16.875 16.42-16.875l9.851.015V24.89h-.001z"/></symbol><symbol viewBox="0 0 97.75 97.75" id="instagram" xmlns="http://www.w3.org/2000/svg"><ellipse cx="48.944" cy="48.719" rx="14.465" ry="14.017"/><path d="M71.333 49.501c0 11.981-10.024 21.692-22.389 21.692s-22.389-9.711-22.389-21.692c0-2.147.324-4.221.924-6.18h-6.616v30.427a2.87 2.87 0 0 0 2.863 2.863h50.159a2.871 2.871 0 0 0 2.865-2.863V43.321h-6.341c.599 1.959.924 4.033.924 6.18zM65.332 35.11h8.141a3.25 3.25 0 0 0 3.242-3.242v-7.762a3.25 3.25 0 0 0-3.242-3.243h-8.141a3.25 3.25 0 0 0-3.243 3.243v7.762a3.25 3.25 0 0 0 3.243 3.242z"/><path d="M48.875 0C21.882 0 0 21.882 0 48.875S21.882 97.75 48.875 97.75 97.75 75.868 97.75 48.875 75.868 0 48.875 0zm26.77 84.891H22.106c-5.087 0-9.246-3.765-9.246-9.244V22.105c0-5.481 4.159-9.245 9.246-9.245h53.539c5.086 0 9.246 3.764 9.246 9.245v53.542c0 5.479-4.161 9.244-9.246 9.244z"/></symbol><symbol viewBox="0 0 29.731 29.731" id="phone" xmlns="http://www.w3.org/2000/svg"><path d="M23.895 29.731c-1.237 0-2.731-.31-4.374-.93-3.602-1.358-7.521-4.042-11.035-7.556C4.971 17.73 2.287 13.81.928 10.208-.307 6.933-.31 4.245.921 3.015c.177-.177.357-.367.543-.563C2.587 1.271 3.856-.058 5.538.002 6.697.05 7.82.77 8.97 2.201c3.398 4.226 1.866 5.732.093 7.478l-.313.31c-.29.29-.838 1.633 4.26 6.731 1.664 1.664 3.083 2.882 4.217 3.619.714.464 1.991 1.166 2.515.642l.315-.318c1.744-1.769 3.25-3.296 7.473.099 1.431 1.15 2.15 2.272 2.198 3.433.069 1.681-1.27 2.953-2.452 4.075-.195.186-.385.366-.562.542-.611.612-1.588.919-2.819.919zM5.418 1C4.223 1 3.144 2.136 2.189 3.141c-.192.202-.378.398-.561.581-.917.916-.824 3.323.236 6.134 1.31 3.472 3.913 7.266 7.33 10.683 3.416 3.415 7.208 6.018 10.681 7.327 2.811 1.062 5.218 1.152 6.133.237.183-.183.379-.369.581-.56 1.027-.976 2.192-2.082 2.141-3.309-.035-.843-.649-1.75-1.825-2.695-3.519-2.83-4.503-1.831-6.135-.176l-.32.323c-.78.781-2.047.608-3.767-.51-1.193-.776-2.667-2.038-4.379-3.751-4.231-4.23-5.584-6.819-4.26-8.146l.319-.315c1.659-1.632 2.66-2.617-.171-6.138-.947-1.175-1.853-1.789-2.696-1.825L5.418 1z"/></symbol><symbol viewBox="0 0 97.75 97.75" id="vk" xmlns="http://www.w3.org/2000/svg"><path d="M48.875 0C21.883 0 0 21.882 0 48.875S21.883 97.75 48.875 97.75 97.75 75.868 97.75 48.875 75.867 0 48.875 0zm24.792 54.161c2.278 2.225 4.688 4.319 6.733 6.774.906 1.086 1.76 2.209 2.41 3.472.928 1.801.09 3.776-1.522 3.883l-10.013-.002c-2.586.214-4.644-.829-6.379-2.597-1.385-1.409-2.67-2.914-4.004-4.371-.545-.598-1.119-1.161-1.803-1.604-1.365-.888-2.551-.616-3.333.81-.797 1.451-.979 3.059-1.055 4.674-.109 2.361-.821 2.978-3.19 3.089-5.062.237-9.865-.531-14.329-3.083-3.938-2.251-6.986-5.428-9.642-9.025-5.172-7.012-9.133-14.708-12.692-22.625-.801-1.783-.215-2.737 1.752-2.774 3.268-.063 6.536-.055 9.804-.003 1.33.021 2.21.782 2.721 2.037 1.766 4.345 3.931 8.479 6.644 12.313.723 1.021 1.461 2.039 2.512 2.76 1.16.796 2.044.533 2.591-.762.35-.823.501-1.703.577-2.585.26-3.021.291-6.041-.159-9.05-.28-1.883-1.339-3.099-3.216-3.455-.956-.181-.816-.535-.351-1.081.807-.944 1.563-1.528 3.074-1.528l11.313-.002c1.783.35 2.183 1.15 2.425 2.946l.01 12.572c-.021.695.349 2.755 1.597 3.21 1 .33 1.66-.472 2.258-1.105 2.713-2.879 4.646-6.277 6.377-9.794.764-1.551 1.423-3.156 2.063-4.764.476-1.189 1.216-1.774 2.558-1.754l10.894.013c.321 0 .647.003.965.058 1.836.314 2.339 1.104 1.771 2.895-.894 2.814-2.631 5.158-4.329 7.508-1.82 2.516-3.761 4.944-5.563 7.471-1.656 2.31-1.525 3.473.531 5.479z"/></symbol></svg>