<?xml version="1.0" encoding="utf-8"?><svg xmlns="http://www.w3.org/2000/svg" xmlns:xlink="http://www.w3.org/1999/xlink"><symbol viewBox="0 0 96 96" id="001-skype-logo" xmlns="http://www.w3.org/2000/svg"><path d="M58.822 47.261c-1.154-.772-2.569-1.437-4.205-1.976a56.116 56.116 0 0 0-5.432-1.462 96.083 96.083 0 0 1-3.4-.857 10.646 10.646 0 0 1-1.978-.791c-.623-.32-1.116-.705-1.465-1.144-.33-.415-.49-.896-.49-1.472 0-.939.498-1.732 1.523-2.424 1.063-.718 2.496-1.081 4.257-1.081 1.897 0 3.277.328 4.103.975.85.665 1.592 1.608 2.205 2.808.528.938 1.006 1.59 1.466 2.008.495.449 1.208.68 2.118.68 1 0 1.85-.365 2.523-1.085.669-.716 1.008-1.536 1.008-2.44 0-.938-.259-1.91-.768-2.885-.506-.964-1.309-1.894-2.39-2.762-1.072-.863-2.438-1.564-4.058-2.083-1.61-.515-3.541-.776-5.734-.776-2.745 0-5.171.394-7.211 1.169-2.066.786-3.67 1.933-4.769 3.407-1.108 1.485-1.669 3.207-1.669 5.117 0 2.003.535 3.709 1.59 5.065 1.04 1.339 2.46 2.409 4.222 3.18 1.723.753 3.889 1.421 6.44 1.983 1.875.403 3.392.789 4.509 1.148 1.069.344 1.953.844 2.622 1.487.638.616.949 1.399.949 2.398 0 1.263-.596 2.294-1.819 3.154-1.253.88-2.918 1.327-4.949 1.327-1.478 0-2.678-.221-3.569-.654-.885-.432-1.579-.982-2.061-1.639-.501-.684-.977-1.549-1.412-2.576-.39-.941-.874-1.672-1.44-2.165-.592-.515-1.321-.775-2.164-.775-1.029 0-1.892.33-2.565.981-.68.658-1.025 1.461-1.025 2.387 0 1.482.529 3.02 1.573 4.568a11.641 11.641 0 0 0 4.046 3.694c2.31 1.261 5.269 1.899 8.798 1.899 2.939 0 5.523-.468 7.679-1.389 2.176-.931 3.855-2.242 4.992-3.896 1.141-1.663 1.72-3.561 1.72-5.643 0-1.742-.336-3.24-1-4.453a8.531 8.531 0 0 0-2.77-3.007zM48 0C21.489 0 0 21.49 0 48c0 26.511 21.489 48 48 48s48-21.489 48-48C96 21.49 74.511 0 48 0zm11.505 74.881c-2.438 0-4.731-.632-6.736-1.74a24.007 24.007 0 0 1-4.5.425c-13.57 0-24.572-11.32-24.572-25.283 0-1.742.172-3.442.498-5.084a14.915 14.915 0 0 1-1.959-7.416c0-8.097 6.38-14.662 14.25-14.662 2.788 0 5.385.826 7.582 2.25 1.366-.242 2.77-.37 4.201-.37 13.572 0 24.573 11.32 24.573 25.282 0 1.862-.198 3.677-.568 5.425a14.948 14.948 0 0 1 1.481 6.513c-.001 8.094-6.38 14.66-14.25 14.66z"/></symbol><symbol viewBox="0 0 612 612" id="002-closed-envelope-circle" xmlns="http://www.w3.org/2000/svg"><path d="M306 612c-28.152 0-55.284-3.672-81.396-11.016-26.112-7.347-50.49-17.646-73.134-30.906s-43.248-29.172-61.812-47.736a305.032 305.032 0 0 1-47.736-61.812c-13.26-22.646-23.562-47.022-30.906-73.135C3.672 361.284 0 334.152 0 306s3.672-55.284 11.016-81.396 17.646-50.49 30.906-73.134 29.172-43.248 47.736-61.812 39.168-34.476 61.812-47.736 47.022-23.562 73.134-30.906S277.848 0 306 0c42.024 0 81.702 8.058 119.034 24.174s69.768 37.944 97.308 65.484 49.368 59.976 65.484 97.308S612 263.976 612 306c0 28.152-3.672 55.284-11.016 81.396-7.347 26.109-17.646 50.487-30.906 73.134a305.087 305.087 0 0 1-47.736 61.812 304.924 304.924 0 0 1-61.812 47.736c-22.646 13.26-47.022 23.562-73.136 30.906C361.284 608.328 334.152 612 306 612zm147.492-432.072H163.404c-2.856 0-5.304.918-7.344 2.754s-3.06 4.386-3.06 7.65v32.436c0 1.632.612 2.448 1.836 2.448l152.388 86.904 1.227.612c.813 0 1.428-.204 1.836-.612l147.492-86.904c.813-.408 1.428-.612 1.836-.612.405 0 1.02-.204 1.836-.612 1.632 0 2.448-.816 2.448-2.448v-31.212c0-3.264-1.021-5.814-3.063-7.65s-4.488-2.754-7.344-2.754zm-208.08 130.356c.408-.408.612-1.021.612-1.836 0-1.227-.408-1.836-1.224-1.836l-87.516-50.185c-1.224-.408-2.244-.408-3.06 0-.816 0-1.224.612-1.224 1.836v131.58c0 1.227.612 2.04 1.836 2.448h1.224c.816 0 1.224-.204 1.224-.612l88.128-81.395zm106.488 9.792c-.408-1.227-1.431-1.428-3.063-.612l-33.66 19.584c-4.08 2.448-8.361 2.448-12.852 0l-29.376-16.521c-1.224-.816-2.244-.816-3.06 0l-111.996 104.04c-.408.405-.612 1.224-.612 2.445 0 .408.408 1.021 1.224 1.836 2.448.816 4.08 1.227 4.896 1.227H450.43c.816 0 1.635-.408 2.448-1.227 0-1.632-.204-2.649-.612-3.06L351.9 320.076zm110.16-66.096h-2.445l-83.232 49.572c-.813 0-1.224.612-1.224 1.836-.408.408-.204 1.02.609 1.833L459 397.188c.816.816 1.428 1.227 1.836 1.227h1.224c1.227-1.227 1.839-2.04 1.839-2.448V256.429c-.003-.817-.615-1.633-1.839-2.449z"/></symbol><symbol viewBox="0 0 512 512" id="003-auricular-phone-symbol-in-a-circle" xmlns="http://www.w3.org/2000/svg"><path d="M256 32c123.5 0 224 100.5 224 224S379.5 480 256 480 32 379.5 32 256 132.5 32 256 32m0-32C114.625 0 0 114.625 0 256s114.625 256 256 256 256-114.625 256-256S397.375 0 256 0zm142.719 341.594l-1.438-4.375c-3.375-10.062-14.5-20.562-24.75-23.375L334.688 303.5c-10.25-2.781-24.875.969-32.405 8.5l-13.688 13.688c-49.75-13.469-88.781-52.5-102.219-102.25l13.688-13.688c7.5-7.5 11.25-22.125 8.469-32.406L198.219 139.5c-2.781-10.25-13.344-21.375-23.406-24.75l-4.313-1.438c-10.094-3.375-24.5.031-32 7.563l-20.5 20.5c-3.656 3.625-6 14.031-6 14.063-.688 65.063 24.813 127.719 70.813 173.75 45.875 45.875 108.313 71.345 173.156 70.781.344 0 11.063-2.281 14.719-5.938l20.5-20.5c7.5-7.469 10.874-21.875 7.531-31.937z"/></symbol><symbol viewBox="0 0 66.135 66.135" id="004-location-circular-button-with-placeholder-inside" xmlns="http://www.w3.org/2000/svg"><path d="M33.066 66.135C14.833 66.135 0 51.301 0 33.068 0 14.834 14.833 0 33.066 0s33.068 14.834 33.068 33.068c.001 18.233-14.834 33.067-33.068 33.067zm0-62.135C17.04 4 4 17.04 4 33.068s13.04 29.067 29.066 29.067 29.068-13.04 29.068-29.067S49.094 4 33.066 4z"/><path d="M43.979 29.115c0-6.981-4.886-12.64-10.912-12.64-6.025 0-10.91 5.658-10.91 12.64 0 0-1.154 6.57 10.91 20.546 12.065-13.975 10.912-20.546 10.912-20.546zm-10.913 2.701a4.375 4.375 0 1 1 0-8.75 4.375 4.375 0 0 1 0 8.75z"/></symbol><symbol viewBox="0 0 97.75 97.75" id="005-instagram-social-network-logo-of-photo-camera" xmlns="http://www.w3.org/2000/svg"><ellipse cx="48.944" cy="48.719" rx="14.465" ry="14.017"/><path d="M71.333 49.501c0 11.981-10.024 21.692-22.389 21.692s-22.389-9.711-22.389-21.692c0-2.147.324-4.221.924-6.18h-6.616v30.427a2.87 2.87 0 0 0 2.863 2.863h50.159a2.871 2.871 0 0 0 2.865-2.863V43.321h-6.341c.599 1.959.924 4.033.924 6.18zM65.332 35.11h8.141a3.25 3.25 0 0 0 3.242-3.242v-7.762a3.25 3.25 0 0 0-3.242-3.243h-8.141a3.25 3.25 0 0 0-3.243 3.243v7.762a3.25 3.25 0 0 0 3.243 3.242z"/><path d="M48.875 0C21.882 0 0 21.882 0 48.875S21.882 97.75 48.875 97.75 97.75 75.868 97.75 48.875 75.868 0 48.875 0zm26.77 84.891H22.106c-5.087 0-9.246-3.765-9.246-9.244V22.105c0-5.481 4.159-9.245 9.246-9.245h53.539c5.086 0 9.246 3.764 9.246 9.245v53.542c0 5.479-4.161 9.244-9.246 9.244z"/></symbol><symbol viewBox="0 0 97.75 97.75" id="006-youtube-symbol" xmlns="http://www.w3.org/2000/svg"><path d="M39.969 59.587L61.91 48.211c-7.359-3.84-14.627-7.63-21.941-11.447v22.823z"/><path d="M48.875 0C21.883 0 0 21.882 0 48.875S21.883 97.75 48.875 97.75 97.75 75.868 97.75 48.875 75.867 0 48.875 0zm33.301 65.189c-.846 3.67-3.848 6.377-7.461 6.78-8.557.957-17.217.962-25.842.957-8.625.005-17.287 0-25.846-.957-3.613-.403-6.613-3.11-7.457-6.78-1.203-5.228-1.203-10.933-1.203-16.314s.014-11.088 1.217-16.314c.844-3.67 3.844-6.378 7.457-6.782 8.559-.956 17.221-.961 25.846-.956 8.623-.005 17.285 0 25.841.956 3.615.404 6.617 3.111 7.461 6.782 1.203 5.227 1.193 10.933 1.193 16.314s-.003 11.087-1.206 16.314z"/></symbol><symbol viewBox="0 0 97.75 97.75" id="007-linkedin-logo" xmlns="http://www.w3.org/2000/svg"><path d="M48.875 0C21.882 0 0 21.882 0 48.875S21.882 97.75 48.875 97.75 97.75 75.868 97.75 48.875 75.868 0 48.875 0zM30.562 81.966h-13.74V37.758h13.74v44.208zm-6.867-50.251a7.968 7.968 0 0 1-7.969-7.968 7.968 7.968 0 0 1 7.969-7.964c4.392 0 7.962 3.57 7.962 7.964 0 4.399-3.571 7.968-7.962 7.968zm58.328 50.251H68.294V60.467c0-5.127-.095-11.721-7.142-11.721-7.146 0-8.245 5.584-8.245 11.35v21.869H39.179V37.758h13.178v6.041h.185c1.835-3.476 6.315-7.14 13-7.14 13.913 0 16.481 9.156 16.481 21.059v24.248z"/></symbol><symbol viewBox="0 0 97.75 97.75" id="008-dribbble-logo" xmlns="http://www.w3.org/2000/svg"><path d="M46.927 38.775C42.032 30.117 36.8 22.816 35.746 21.367c-8.416 4.016-14.719 11.764-16.74 21.088h.299c2.816 0 14.484-.226 27.622-3.68zM69.01 25.984C63.628 21.266 56.582 18.4 48.875 18.4c-2.37 0-4.676.273-6.893.789 1.242 1.678 6.471 8.9 11.243 17.631 10.314-3.9 14.934-9.672 15.785-10.836zM57.713 45.988c.208.488.41.975.609 1.459a57.325 57.325 0 0 1 6.967-.404c6.951 0 12.768 1.088 14.141 1.365a30.348 30.348 0 0 0-6.753-18.607c-1.067 1.383-6.229 7.498-16.925 11.904a94.395 94.395 0 0 1 1.961 4.283zm-6.744 3.03c.336-.108.676-.207 1.016-.307a101.527 101.527 0 0 0-2.336-4.879c-13.565 4.027-26.731 4.342-30.522 4.342-.35 0-.617-.002-.801-.006-.006.252-.013.504-.013.754.001 7.752 2.91 14.834 7.693 20.223 1.291-2.133 9.689-15.194 24.963-20.127z"/><path d="M48.875 0C21.882 0 0 21.883 0 48.875S21.882 97.75 48.875 97.75 97.75 75.867 97.75 48.875 75.868 0 48.875 0zm0 85.004c-19.948 0-36.176-16.207-36.177-36.129.002-19.922 16.229-36.127 36.177-36.129 19.948.002 36.175 16.207 36.176 36.129-.001 19.922-16.228 36.129-36.176 36.129z"/><path d="M60.327 52.631c3.801 10.484 5.448 19.082 5.856 21.432 6.692-4.608 11.461-11.811 12.84-20.141-1.16-.354-6.157-1.752-12.543-1.752-1.945 0-4.02.133-6.153.461zm-6.143 1.512c-16.742 5.826-23.078 17.236-23.95 18.949a30.442 30.442 0 0 0 18.642 6.352c4.183 0 8.172-.844 11.806-2.37-.49-2.843-2.269-12.013-6.464-22.943l-.034.012z"/></symbol><symbol viewBox="0 0 97.75 97.75" id="009-vimeo-social-logo" xmlns="http://www.w3.org/2000/svg"><path d="M48.875 0C21.883 0 0 21.882 0 48.875S21.883 97.75 48.875 97.75 97.75 75.868 97.75 48.875 75.867 0 48.875 0zm34.553 32.795c-.306 6.734-5.014 15.959-14.109 27.666-9.402 12.229-17.36 18.344-23.873 18.344-4.029 0-7.44-3.723-10.229-11.173-1.861-6.827-3.724-13.651-5.584-20.479-2.067-7.446-4.287-11.174-6.663-11.174-.516 0-2.33 1.091-5.431 3.261l-3.252-4.195c3.411-2.997 6.78-6 10.093-9.006 4.555-3.933 7.971-6.004 10.252-6.214 5.383-.517 8.697 3.167 9.941 11.044 1.344 8.504 2.273 13.793 2.795 15.861 1.551 7.055 3.26 10.579 5.122 10.579 1.449 0 3.627-2.291 6.525-6.863 2.896-4.577 4.448-8.061 4.657-10.448.413-3.951-1.14-5.93-4.657-5.93-1.658 0-3.367.378-5.121 1.135 3.399-11.138 9.895-16.551 19.484-16.245 7.11.209 10.459 4.821 10.05 13.837z"/></symbol><symbol viewBox="0 0 97.75 97.75" id="010-flickr-logo" xmlns="http://www.w3.org/2000/svg"><path d="M48.875 0C21.883 0 0 21.882 0 48.875S21.883 97.75 48.875 97.75 97.75 75.868 97.75 48.875 75.867 0 48.875 0zM28.277 66.361c-8.895 0-16.105-7.828-16.105-17.486s7.211-17.487 16.105-17.487 16.106 7.829 16.106 17.487-7.211 17.486-16.106 17.486zm40.731-.416c-9.152 0-16.57-7.735-16.57-17.279 0-9.542 7.418-17.278 16.57-17.278 9.15 0 16.57 7.736 16.57 17.278 0 9.544-7.42 17.279-16.57 17.279z"/></symbol><symbol viewBox="0 0 97.75 97.75" id="011-google-plus-social-logotype" xmlns="http://www.w3.org/2000/svg"><path d="M50.729 33.67c0-6.775-4.039-17.311-11.826-17.311-2.448 0-5.071 1.222-6.577 3.105-1.598 1.979-2.062 4.511-2.062 6.965 0 6.3 3.658 16.741 11.736 16.741 2.345 0 4.872-1.123 6.382-2.63 2.159-2.171 2.347-5.175 2.347-6.87zm-5.072 24.744c-.748-.094-1.218-.094-2.156-.094-.847 0-5.918.185-9.859 1.511-2.064.748-8.071 3.008-8.071 9.687 0 6.682 6.478 11.485 16.522 11.485 9.015 0 13.804-4.338 13.804-10.163-.001-4.813-3.099-7.344-10.24-12.426z"/><path d="M48.875 0C21.882 0 0 21.882 0 48.875S21.882 97.75 48.875 97.75 97.75 75.868 97.75 48.875 75.868 0 48.875 0zM37.489 84.945c-13.616 0-20.184-6.488-20.184-13.455 0-3.385 1.687-8.18 7.227-11.475 5.818-3.576 13.709-4.043 17.936-4.334-1.319-1.692-2.816-3.479-2.816-6.395 0-1.597.47-2.539.934-3.669-1.034.096-2.062.188-3.002.188-9.948 0-15.581-7.438-15.581-14.775 0-4.322 1.969-9.124 6.005-12.605 5.354-4.422 12.67-5.622 17.744-5.622H64.25l-6.105 3.836h-5.816c2.158 1.786 6.658 5.549 6.658 12.703 0 6.957-3.938 10.259-7.879 13.36-1.223 1.221-2.632 2.538-2.632 4.611 0 2.065 1.41 3.193 2.44 4.047l3.383 2.628c4.132 3.479 7.888 6.679 7.886 13.177-.001 8.847-8.55 17.78-24.696 17.78zm40.516-37.22v9.464h-4.646v-9.464h-9.393v-4.697h9.393v-9.406h4.646v9.406h9.438v4.697h-9.438z"/></symbol><symbol viewBox="0 0 97.75 97.75" id="012-pinterest-social-logo" xmlns="http://www.w3.org/2000/svg"><path d="M48.875 0C21.883 0 0 21.882 0 48.875S21.883 97.75 48.875 97.75 97.75 75.868 97.75 48.875 75.867 0 48.875 0zm5.624 65.109c-4.521 0-8.773-2.444-10.229-5.219 0 0-2.432 9.645-2.943 11.506-1.813 6.58-7.146 13.162-7.561 13.701-.289.375-.928.258-.994-.24-.113-.838-1.475-9.139.127-15.909.801-3.4 5.383-22.814 5.383-22.814s-1.334-2.673-1.334-6.625c0-6.205 3.596-10.837 8.074-10.837 3.807 0 5.645 2.859 5.645 6.286 0 3.828-2.436 9.552-3.693 14.856-1.051 4.441 2.225 8.064 6.605 8.064 7.933 0 13.272-10.188 13.272-22.261 0-9.174-6.176-16.044-17.418-16.044-12.697 0-20.615 9.471-20.615 20.052 0 3.646 1.078 6.221 2.764 8.21.773.915.883 1.283.602 2.333-.203.771-.66 2.625-.854 3.358-.279 1.062-1.137 1.44-2.098 1.049-5.846-2.387-8.572-8.793-8.572-15.994 0-11.893 10.029-26.154 29.922-26.154 15.985 0 26.506 11.566 26.506 23.984.001 16.428-9.132 28.698-22.589 28.698z"/></symbol><symbol viewBox="0 0 97.75 97.75" id="013-twitter-social-logotype" xmlns="http://www.w3.org/2000/svg"><path d="M48.875 0C21.882 0 0 21.882 0 48.875S21.882 97.75 48.875 97.75 97.75 75.868 97.75 48.875 75.868 0 48.875 0zM78.43 35.841c.023.577.035 1.155.035 1.736 0 20.878-15.887 42.473-42.473 42.473a42.306 42.306 0 0 1-22.883-6.708.36.36 0 0 1-.145-.427.365.365 0 0 1 .383-.237c1.148.137 2.322.205 3.487.205 6.323 0 12.309-1.955 17.372-5.664a15.157 15.157 0 0 1-13.161-10.478.364.364 0 0 1 .073-.351.365.365 0 0 1 .339-.115 14.55 14.55 0 0 0 5.04.072c-6.259-1.945-10.658-7.808-10.658-14.483l.002-.194a.362.362 0 0 1 .537-.309 14.493 14.493 0 0 0 5.291 1.711A15.144 15.144 0 0 1 15.96 31.21c0-2.682.71-5.318 2.054-7.623a.36.36 0 0 1 .284-.178.354.354 0 0 1 .309.132c7.362 9.03 18.191 14.59 29.771 15.305a15.344 15.344 0 0 1-.291-2.985c0-8.361 6.802-15.162 15.162-15.162 4.11 0 8.082 1.689 10.929 4.641a29.23 29.23 0 0 0 9.09-3.508.363.363 0 0 1 .41.028c.116.094.164.25.118.394a15.14 15.14 0 0 1-5.33 7.489 29.15 29.15 0 0 0 6.831-2.072.361.361 0 0 1 .447.533 30.22 30.22 0 0 1-7.314 7.637z"/></symbol><symbol viewBox="0 0 97.75 97.75" id="014-facebook-logo" xmlns="http://www.w3.org/2000/svg"><path d="M48.875 0C21.882 0 0 21.882 0 48.875S21.882 97.75 48.875 97.75 97.75 75.868 97.75 48.875 75.868 0 48.875 0zm18.646 24.89l-6.76.003c-5.301 0-6.326 2.519-6.326 6.215v8.15h12.641l-.006 12.765H54.436v32.758H41.251V52.023H30.229V39.258h11.022v-9.414c0-10.925 6.675-16.875 16.42-16.875l9.851.015V24.89h-.001z"/></symbol></svg>